<svg id="Capa_x0020_2" xmlns="http://www.w3.org/2000/svg" width="86" height="44.558" viewBox="0 0 86 44.558">
  <path id="Trazado_37" data-name="Trazado 37" d="M28.646,14.313c0-6.3-4.573-12.652-13.718-12.652-9.063,0-13.636,6.357-13.636,12.652,0,6.234,4.573,12.529,13.636,12.529C24.073,26.842,28.646,20.546,28.646,14.313ZM12.406,44.128H10.868l11.3-16.609,1.661-2.03c-.492.369-.984.738-1.476,1.046A15.411,15.411,0,0,1,14.928,28.2C5,28.2,0,21.285,0,14.313,0,7.279,5,.369,14.928.308c10.007,0,15.01,6.91,15.01,13.944a13.618,13.618,0,0,1-2.522,8.018Z" fill="#878383"/>
  <path id="Trazado_38" data-name="Trazado 38" d="M60,35.536l-.246.246c-2.42,4.429-6.275,7.423-11.545,7.423a11.915,11.915,0,0,1-6.808-2.03,10.932,10.932,0,0,1-.943,1,13.169,13.169,0,0,0,7.751,2.379c5.475,0,9.515-2.912,12.16-7.3a2.493,2.493,0,0,1-.39-1.353A2.229,2.229,0,0,1,60,35.536ZM48.208,0C37.587,0,32.337,10.991,32.337,22.412c0,6.3,1.64,12.467,4.921,16.671.082-.041.144-.1.226-.144l.041-.021c.205-.123.513-.308.882-.513-3.178-3.978-4.778-9.945-4.778-15.994,0-10.745,4.819-21.059,14.579-21.059,9.74,0,14.62,10.683,14.62,21.059a33.5,33.5,0,0,1-.308,4.552l1.271-.144a34.865,34.865,0,0,0,.267-4.409C64.059,10.991,58.748,0,48.208,0Z" fill="#878383"/>
  <path id="Trazado_39" data-name="Trazado 39" d="M50.833,30.328a3.534,3.534,0,0,1,2.358-1.476c.472,0,.7.205.7.636a1.964,1.964,0,0,1-.533,1.189,4.606,4.606,0,0,1-1.394,1,3.691,3.691,0,0,1-1.579.41,2.407,2.407,0,0,1-.595-.062,8.617,8.617,0,0,1,.738-1.333l.082-.082a.429.429,0,0,0,.082-.123C50.731,30.451,50.772,30.389,50.833,30.328ZM41.585,39.76a18.93,18.93,0,0,1-2.727,2.727,4.034,4.034,0,0,1-2.194,1.066.83.83,0,0,1-.554-.226.765.765,0,0,1-.246-.554,2.163,2.163,0,0,1,.492-1.251,7.574,7.574,0,0,1,1.64-1.5c.718-.513,1.7-1.128,2.953-1.866l1.333-.779,1.087-.636.287-.164A15.732,15.732,0,0,1,41.585,39.76Zm44.271-9.535c-.062,0-.144.082-.267.226a23.4,23.4,0,0,1-2.379,2.481,12.017,12.017,0,0,1-2.174,1.661,6.061,6.061,0,0,1-1.989.779,4.841,4.841,0,0,0,1.312-1.251,2.863,2.863,0,0,0,.123-2.727,6.837,6.837,0,0,0-1.066-1.435,4.293,4.293,0,0,1-.328-.369l-.082-.1a.177.177,0,0,1-.062-.123c0-.041.021-.062.041-.1l.144-.164A1.842,1.842,0,0,0,79.6,27.99c0-.308-.144-.451-.39-.451a.745.745,0,0,0-.595.369,1.331,1.331,0,0,0-.287.82,2.218,2.218,0,0,0,.185.759l-.1.082a1.326,1.326,0,0,1-.164.185.8.8,0,0,1-.164.205,3.691,3.691,0,0,1-.308.328.044.044,0,0,1-.041.041l-.144.144-.451.513q-.984,1.107-1.907,1.969A14.059,14.059,0,0,1,73.143,34.7a2.959,2.959,0,0,1-1.558.533,1.256,1.256,0,0,1-.943-.41,1.344,1.344,0,0,1-.39-.984,5.768,5.768,0,0,1,1.6-3.342l.554-.677a.5.5,0,0,0,.123-.328.327.327,0,0,0-.082-.246.445.445,0,0,0-.287-.1,3.627,3.627,0,0,0-.841.349,3.764,3.764,0,0,1-1.681.451,1.393,1.393,0,0,1-.39-.062c.082-.1.144-.185.185-.226a3.173,3.173,0,0,0,.779-1.435c0-.287-.123-.431-.39-.431a1.054,1.054,0,0,0-.779.513,1.829,1.829,0,0,0-.369,1.087,1.056,1.056,0,0,0,.164.554l-.123.123a.606.606,0,0,1-.062.082l-.164.226a1.576,1.576,0,0,0-.451.431l-.39.431a27.191,27.191,0,0,1-2.317,2.276c-1.23,1.087-2.133,1.62-2.707,1.62a.687.687,0,0,1-.595-.267,1.07,1.07,0,0,1-.246-.738A6.747,6.747,0,0,1,62.911,30.9a.524.524,0,0,0-.369-.226.922.922,0,0,0-.39.123,12.755,12.755,0,0,1-2.379,2.994,3.725,3.725,0,0,1-2.256,1.169,1.112,1.112,0,0,1-.841-.328,1.038,1.038,0,0,1-.349-.841,3,3,0,0,1,.431-1.333,7.5,7.5,0,0,1,1.107-1.6,8.183,8.183,0,0,1,2.461-1.887,5.551,5.551,0,0,1,2.625-.759,2.512,2.512,0,0,1,1.292.287,1.034,1.034,0,0,1,.431.882c0,.595-.369,1.107-1.148,1.579l.062.185c1.21-.513,1.825-1.169,1.825-2.03a1.143,1.143,0,0,0-.533-1,2.859,2.859,0,0,0-1.538-.328,6.349,6.349,0,0,0-2.317.513A10.832,10.832,0,0,0,56.9,31.168c-.226.267-.41.513-.595.779-.533.533-1.046,1.046-1.558,1.517A10.085,10.085,0,0,1,52.781,34.9a3.47,3.47,0,0,1-1.62.451,1.611,1.611,0,0,1-1.23-.513,1.747,1.747,0,0,1-.492-1.292,5.126,5.126,0,0,1,.205-1.21c.328.041.554.062.656.062a4.5,4.5,0,0,0,1.969-.492,5.371,5.371,0,0,0,1.661-1.251,2.239,2.239,0,0,0,.636-1.476.85.85,0,0,0-.246-.636,1.192,1.192,0,0,0-.759-.205,3.736,3.736,0,0,0-2.215,1,8.955,8.955,0,0,0-1.825,2.01,23.7,23.7,0,0,1-1.907,1.866,20.362,20.362,0,0,1-2.727,2.174c0-.041.021-.041.041-.062,0-.021.021-.041.021-.062.021-.041.021-.082.041-.082,0-.041,0-.062.021-.062v-.041l.021-.021.308-.656a20.776,20.776,0,0,0,1.128-3.158,9.747,9.747,0,0,0,.472-2.768c0-.287-.021-.533-.041-.759l-.677.451v.185a6.909,6.909,0,0,1-.677,2.891,8.169,8.169,0,0,1-1.64,2.481,2.859,2.859,0,0,1-1.928,1.025.9.9,0,0,1-.7-.328,1.02,1.02,0,0,1-.287-.759q0-1.476,2.276-4.368a2.7,2.7,0,0,0-1.107.185A9.83,9.83,0,0,0,40.7,31.66a4.652,4.652,0,0,0-.554,1.948,1.612,1.612,0,0,0,.431,1.169,1.374,1.374,0,0,0,1.087.472c1.169,0,2.379-.923,3.67-2.809a14.273,14.273,0,0,1-.451,1.415l-.369.882a7.79,7.79,0,0,1-.615,1.333,9.052,9.052,0,0,1-1.046.636c-.082.062-.9.533-2.461,1.435-1,.554-1.722.964-2.174,1.23a19.98,19.98,0,0,0-1.845,1.353,3.657,3.657,0,0,0-1.538,2.5,1.02,1.02,0,0,0,.308.759,1.088,1.088,0,0,0,.759.308A4.737,4.737,0,0,0,38.632,43.1a22.144,22.144,0,0,0,3.835-3.876,21.437,21.437,0,0,0,1.476-2.153l.431-.779a.21.21,0,0,0,.1-.123.533.533,0,0,0,.062-.144c.943-.656,1.681-1.21,2.215-1.64.841-.7,1.558-1.353,2.174-1.969a4.267,4.267,0,0,0-.431,1.763,2.091,2.091,0,0,0,.574,1.5,1.917,1.917,0,0,0,1.435.595,5.521,5.521,0,0,0,3.076-1.394,19.289,19.289,0,0,0,2.092-1.845,3.294,3.294,0,0,0-.369,1.394,1.365,1.365,0,0,0,.369,1.025,1.153,1.153,0,0,0,.943.39c1.128,0,2.522-.882,4.2-2.666l.226-.226a7.609,7.609,0,0,0-.164,1.374,1.723,1.723,0,0,0,.349,1.128,1.1,1.1,0,0,0,.9.431,3.157,3.157,0,0,0,1.394-.513,12.458,12.458,0,0,0,1.948-1.517q1.23-1.138,2.338-2.338c.328-.349.554-.615.7-.779.062-.062.144-.144.246-.267l.267-.308.021-.021v-.021a2.275,2.275,0,0,0,.7.123,2.933,2.933,0,0,0,.882-.185,2.222,2.222,0,0,1,.41-.1c.082,0,.123.041.123.1a.656.656,0,0,1-.144.267,6.565,6.565,0,0,0-1.763,3.732,1.69,1.69,0,0,0,1.784,1.784A4.623,4.623,0,0,0,73.758,34.7a27.843,27.843,0,0,0,3.917-3.876.379.379,0,0,0,.185-.144l.41-.492L78.433,30a.654.654,0,0,0,.123-.144c.041-.021.062-.062.1-.1l.226.349a7.124,7.124,0,0,1,.759,1.415,3.837,3.837,0,0,1,.164,1.128,3.2,3.2,0,0,1-.533,1.784,2.487,2.487,0,0,1-1.394,1.025,12.9,12.9,0,0,1-1.558-.41,2.977,2.977,0,0,0-.677-.164c-.267,0-.41.123-.41.369,0,.185.164.349.472.492a3,3,0,0,0,1.128.205,6.55,6.55,0,0,0,1.148-.164c.021,0,.041-.021.062-.021h.062c.021,0,.082-.021.185-.041a5.68,5.68,0,0,0,1.681-.308,7.176,7.176,0,0,0,1.6-.779,12.227,12.227,0,0,0,1.7-1.333c.574-.533,1.251-1.23,1.989-2.03.062-.062.123-.144.205-.226.062-.1.123-.144.144-.185a.783.783,0,0,1,.185-.185c.123-.144.205-.246.205-.328S85.938,30.225,85.856,30.225Z" fill="#878383"/>
</svg>
