<svg id="logo-instagram" xmlns="http://www.w3.org/2000/svg" width="20.999" height="21" viewBox="0 0 20.999 21">
  <path id="Trazado_7" data-name="Trazado 7" d="M26.107,10.433a1.26,1.26,0,1,1-1.26-1.26A1.26,1.26,0,0,1,26.107,10.433Z" transform="translate(-8.742 -5.539)" fill="#878383"/>
  <path id="Trazado_8" data-name="Trazado 8" d="M16.459,11.068a5.391,5.391,0,1,0,5.391,5.391A5.391,5.391,0,0,0,16.459,11.068Zm0,8.891a3.5,3.5,0,1,1,3.5-3.5A3.5,3.5,0,0,1,16.459,19.959Z" transform="translate(-5.96 -5.96)" fill="#878383"/>
  <path id="Trazado_9" data-name="Trazado 9" d="M15,6.391c2.8,0,3.136.01,4.243.061a5.811,5.811,0,0,1,1.95.362,3.478,3.478,0,0,1,1.993,1.993,5.811,5.811,0,0,1,.362,1.95c.051,1.107.061,1.44.061,4.243s-.01,3.135-.061,4.242a5.811,5.811,0,0,1-.362,1.95,3.478,3.478,0,0,1-1.993,1.993,5.811,5.811,0,0,1-1.95.362c-1.107.051-1.44.061-4.243.061s-3.136-.01-4.243-.061a5.811,5.811,0,0,1-1.95-.362,3.478,3.478,0,0,1-1.993-1.993,5.811,5.811,0,0,1-.362-1.95C6.4,18.136,6.391,17.8,6.391,15s.01-3.136.061-4.243a5.811,5.811,0,0,1,.362-1.95A3.478,3.478,0,0,1,8.807,6.815a5.811,5.811,0,0,1,1.95-.362C11.864,6.4,12.2,6.391,15,6.391M15,4.5c-2.851,0-3.21.012-4.33.063a7.706,7.706,0,0,0-2.548.488A5.369,5.369,0,0,0,5.051,8.123a7.706,7.706,0,0,0-.488,2.549C4.512,11.791,4.5,12.147,4.5,15s.012,3.21.063,4.33a7.706,7.706,0,0,0,.488,2.548,5.369,5.369,0,0,0,3.071,3.071,7.706,7.706,0,0,0,2.549.488c1.12.051,1.477.063,4.328.063s3.21-.012,4.33-.063a7.706,7.706,0,0,0,2.549-.488,5.369,5.369,0,0,0,3.071-3.071,7.706,7.706,0,0,0,.488-2.549c.05-1.121.062-1.476.062-4.329s-.012-3.21-.063-4.33a7.706,7.706,0,0,0-.488-2.548,5.369,5.369,0,0,0-3.071-3.071,7.706,7.706,0,0,0-2.549-.488C18.208,4.512,17.852,4.5,15,4.5Z" transform="translate(-4.5 -4.5)" fill="#878383"/>
</svg>
