<svg xmlns="http://www.w3.org/2000/svg" width="32.506" height="32.506" viewBox="0 0 32.506 32.506">
  <g id="play-outline" transform="translate(-2.25 -2.25)">
    <path id="Trazado_33" data-name="Trazado 33" d="M18.5,4.572A13.931,13.931,0,1,1,4.572,18.5,13.931,13.931,0,0,1,18.5,4.572m0-2.322A16.253,16.253,0,1,0,34.756,18.5,16.253,16.253,0,0,0,18.5,2.25Z" transform="translate(0 0)" fill="#fff"/>
    <path id="Trazado_34" data-name="Trazado 34" d="M13.536,26.378a1.162,1.162,0,0,1-1.161-1.161V11.286a1.149,1.149,0,0,1,1.73-1l12.77,6.966a1.161,1.161,0,0,1,0,2.043L14.1,26.261a1.161,1.161,0,0,1-.569.117ZM14.7,13.236V23.267l9.183-5.015Z" transform="translate(0.323 0.252)" fill="#fff"/>
  </g>
</svg>
