<svg xmlns="http://www.w3.org/2000/svg" width="21" height="21" viewBox="0 0 21 21">
  <path id="social-linkedin" d="M24.484,5.04H6.59A1.533,1.533,0,0,0,5.04,6.553V24.525A1.533,1.533,0,0,0,6.59,26.04H24.484a1.538,1.538,0,0,0,1.556-1.515V6.553A1.537,1.537,0,0,0,24.484,5.04ZM11.268,22.935H8.152V12.913h3.116V22.935ZM9.71,11.543a1.806,1.806,0,1,1,1.805-1.807A1.805,1.805,0,0,1,9.71,11.543ZM22.934,22.935H19.823V18.062c0-1.163-.023-2.657-1.619-2.657-1.621,0-1.868,1.266-1.868,2.573v4.958H13.222V12.913H16.21v1.368h.043A3.274,3.274,0,0,1,19.2,12.663c3.152,0,3.734,2.075,3.734,4.774v5.5Z" transform="translate(-5.04 -5.04)" fill="#878383"/>
</svg>
