<svg xmlns="http://www.w3.org/2000/svg" width="27.997" height="21" viewBox="0 0 27.997 21">
  <path id="social-youtube" d="M27.817,9.137A4.251,4.251,0,0,0,23.77,4.7c-3.03-.142-6.12-.2-9.278-.2h-.985c-3.15,0-6.246.054-9.275.2A4.261,4.261,0,0,0,.191,9.149C.054,11.095,0,13.042,0,14.989s.056,3.9.186,5.846a4.265,4.265,0,0,0,4.041,4.457c3.183.148,6.448.213,9.768.208q4.988.016,9.768-.208a4.266,4.266,0,0,0,4.047-4.457c.131-1.952.191-3.9.186-5.851q.019-2.921-.178-5.846Zm-16.5,11.217V9.608l7.93,5.371Z" transform="translate(0 -4.5)" fill="#878383"/>
</svg>
