<svg xmlns="http://www.w3.org/2000/svg" width="21" height="21" viewBox="0 0 21 21">
  <path id="social-facebook" d="M24.881,5.04H6.2A1.159,1.159,0,0,0,5.04,6.2V24.881A1.159,1.159,0,0,0,6.2,26.04H16.257V17.907H13.52V14.739h2.737V12.4a3.819,3.819,0,0,1,4.076-4.189,22.393,22.393,0,0,1,2.446.125v2.835H21.1c-1.316,0-1.571.625-1.571,1.543v2.024h3.139l-.408,3.169h-2.73V26.04h5.351a1.159,1.159,0,0,0,1.158-1.159V6.2A1.159,1.159,0,0,0,24.881,5.04Z" transform="translate(-5.04 -5.04)" fill="#878383"/>
</svg>
