<?xml version="1.0" standalone="no"?>
<!DOCTYPE svg PUBLIC "-//W3C//DTD SVG 20010904//EN"
 "http://www.w3.org/TR/2001/REC-SVG-20010904/DTD/svg10.dtd">
<svg version="1.0" xmlns="http://www.w3.org/2000/svg"
 width="260.000000pt" height="260.000000pt" viewBox="0 0 260.000000 260.000000"
 preserveAspectRatio="xMidYMid meet">
<metadata>
Created by potrace 1.14, written by Peter Selinger 2001-2017
</metadata>
<g transform="translate(0.000000,260.000000) scale(0.100000,-0.100000)"
fill="#000000" stroke="none">
<path d="M1030 2464 c-239 -29 -357 -60 -395 -105 l-25 -31 0 -1028 0 -1028
26 -32 c37 -43 70 -58 192 -86 155 -35 335 -48 567 -41 290 8 502 48 568 107
l32 28 3 1031 c3 1151 7 1073 -68 1111 -142 72 -600 110 -900 74z m700 -399
c-5 -33 -3 -51 8 -67 9 -11 17 -48 18 -82 2 -34 8 -126 13 -206 12 -168 14
-303 4 -453 -5 -94 -8 -105 -21 -94 -36 29 -90 131 -126 236 -21 61 -40 110
-43 108 -8 -9 38 -173 63 -224 14 -28 45 -74 69 -101 51 -56 52 -63 29 -182
-17 -94 -49 -171 -88 -217 -17 -20 -28 -46 -29 -67 -1 -19 -6 -32 -11 -29 -11
7 -26 -17 -26 -44 0 -18 -6 -23 -25 -23 -22 0 -25 4 -25 38 1 20 11 66 23 102
17 51 27 66 46 70 21 5 22 7 8 18 -12 10 -18 10 -30 -3 -21 -20 -53 -108 -61
-167 l-7 -48 -48 0 -49 0 -4 95 c-5 114 -15 131 -56 92 l-29 -28 -25 21 c-15
11 -33 20 -41 20 -8 0 -26 18 -41 40 -29 44 -46 45 -46 2 0 -15 -11 -37 -26
-52 -49 -49 -94 -121 -105 -168 -7 -26 -13 -53 -15 -59 -5 -19 -51 -16 -58 3
-16 41 -5 113 28 190 19 43 38 96 42 118 l7 38 23 -28 23 -29 -14 40 c-7 22
-16 49 -20 60 -9 28 -21 5 -36 -65 -6 -30 -27 -93 -46 -140 -31 -75 -34 -92
-29 -142 l6 -58 -45 0 c-25 0 -48 -1 -52 -2 -5 -2 -10 18 -13 44 -3 27 -11 53
-18 60 -15 15 -16 53 -2 78 7 13 6 85 -2 222 -17 284 -16 315 10 364 29 56 91
107 155 128 75 26 245 31 412 12 107 -11 141 -12 148 -3 8 12 4 161 -9 390 -4
74 -3 111 5 121 8 10 9 26 2 57 -5 24 -8 45 -7 47 2 2 13 -9 24 -25 18 -26 24
-28 74 -25 47 3 56 7 70 33 10 16 19 29 21 29 2 0 1 -20 -3 -45z m-458 -1255
c10 0 23 -9 30 -20 17 -27 37 -25 70 7 l28 27 0 -44 c0 -24 -3 -40 -6 -37 -4
4 -20 -3 -36 -15 l-30 -21 -22 28 c-17 21 -27 26 -44 21 -19 -6 -22 -4 -22 17
0 28 -33 62 -51 51 -7 -4 -10 -3 -7 2 3 5 8 18 12 29 7 19 9 18 34 -13 15 -18
35 -32 44 -32z m361 -238 c65 -32 134 -92 105 -92 -8 0 -45 16 -82 35 -104 56
-178 63 -438 42 -217 -18 -379 -21 -410 -9 -10 4 29 8 85 9 56 1 172 11 257
22 218 29 224 29 327 26 81 -2 101 -6 156 -33z"/>
<path d="M1694 1905 c-7 -37 -34 -70 -34 -41 0 9 -4 16 -9 16 -10 0 -21 -36
-13 -44 20 -20 62 13 62 49 0 15 7 25 23 29 18 5 20 8 7 16 -24 16 -29 12 -36
-25z"/>
</g>
</svg>
